<?xml version="1.0" encoding="UTF-8"?>
<svg width="752pt" height="752pt" version="1.1" viewBox="0 0 752 752" xmlns="http://www.w3.org/2000/svg">
 <path d="m509.61 189.77c29.062 0 52.625 23.559 52.625 52.625v267.22c0 29.062-23.562 52.625-52.625 52.625h-267.22c-29.066 0-52.625-23.562-52.625-52.625v-267.22c0-29.066 23.559-52.625 52.625-52.625zm-214.71 252.32c-22.395 0-40.551 18.156-40.551 40.551s18.156 40.551 40.551 40.551c22.395 0 40.551-18.156 40.551-40.551s-18.156-40.551-40.551-40.551zm162.21 0c-22.398 0-40.551 18.156-40.551 40.551s18.152 40.551 40.551 40.551c22.395 0 40.551-18.156 40.551-40.551s-18.156-40.551-40.551-40.551zm-162.21-105.13c-22.395 0-40.551 18.152-40.551 40.551 0 22.395 18.156 40.551 40.551 40.551 22.395 0 40.551-18.156 40.551-40.551 0-22.398-18.156-40.551-40.551-40.551zm162.21 0c-22.398 0-40.551 18.152-40.551 40.551 0 22.395 18.152 40.551 40.551 40.551 22.395 0 40.551-18.156 40.551-40.551 0-22.398-18.156-40.551-40.551-40.551zm-162.21-108.14c-22.395 0-40.551 18.152-40.551 40.551 0 22.395 18.156 40.551 40.551 40.551 22.395 0 40.551-18.156 40.551-40.551 0-22.398-18.156-40.551-40.551-40.551zm162.21 0c-22.398 0-40.551 18.152-40.551 40.551 0 22.395 18.152 40.551 40.551 40.551 22.395 0 40.551-18.156 40.551-40.551 0-22.398-18.156-40.551-40.551-40.551z"/>
</svg>
